<?xml version="1.0" encoding="utf-8"?><svg xmlns="http://www.w3.org/2000/svg" width="750" height="500"><path d="m0.5,0.5h749v499H0.5z" stroke="#000" fill="#ffffff"/><path d="m693.656,0-93.3124,62.219,5.7812-28.906-52,34.687-5.7812,28.875-78,52,5.7812-28.875-52,34.656-5.7812,28.907-208.031,138.656,5.7813-28.875-52,34.656-5.7813,28.906-78,52,5.7813-28.906-52,34.688L28.313,443.563,0,462.438,0,500,56.375,500,128,452.25l28.875,5.75,52,-34.656-28.875-5.781,78-52,28.875,5.781,52-34.656L310,330.906,518,192.219,546.906,198,598.781,163.125,570,157.563l78.0312-52.032,28.875,5.782,52-34.657-28.875-5.781L750,37.563,750,0z" fill="#da121a"/><path d="m56.3438,0,93.3124,62.219-5.7812-28.906,52,34.687,5.7812,28.875,78,52-5.7812-28.875,52,34.656,5.7812,28.907,208.031,138.656-5.7813-28.875,52,34.656,5.7813,28.906,78,52-5.7813-28.906,52,34.688,5.7813,28.875,28.313,18.875V500h-56.375l-71.625-47.75-28.875,5.75-52-34.656,28.875-5.781-78-52-28.875,5.781-52-34.656,28.875-5.782-208-138.687-28.906,5.781-51.875-34.875,28.781-5.562-78.0312-52.032-28.875,5.782-52-34.657L49.969,70.875,0,37.563V0z" fill="#da121a"/>
</svg>